<svg xmlns="http://www.w3.org/2000/svg" width="155" height="29" viewBox="0 0 155 29">
    <g fill="none" fill-rule="evenodd">
        <path fill="#4CBBFD" fill-rule="nonzero" d="M25.964 14.538a11.573 11.573 0 0 0-1.88-6.33l4.565-4.565-3.43-3.429-4.56 4.565a11.589 11.589 0 0 0-12.661 0L3.428.214 0 3.643l4.565 4.565a11.589 11.589 0 0 0 0 12.66L0 25.435l3.429 3.428 4.565-4.565a11.589 11.589 0 0 0 12.66 0l4.566 4.565 3.429-3.428-4.566-4.562a11.573 11.573 0 0 0 1.881-6.334zm-18.43 0a6.79 6.79 0 1 1 12.985 2.77l-4.48-4.485-3.43 3.43 4.48 4.48a6.777 6.777 0 0 1-9.555-6.195z"/>
        <path fill="#FFF" d="M50.623 14.675c0 2.8-1.42 5.329-3.948 6.496l1.342 1.75-2.762 1.4-1.848-2.45h-.058c-4.57 0-7.273-3.326-7.273-7.196 0-3.87 2.703-7.195 7.273-7.195s7.274 3.325 7.274 7.195zm-7.274 4.376c2.587 0 3.987-2.003 3.987-4.376 0-2.372-1.4-4.376-3.987-4.376-2.606 0-4.006 2.004-3.987 4.376-.019 2.373 1.381 4.376 3.987 4.376zm12.369 2.684c-2.256 0-3.462-1.4-3.462-3.832v-5.795h3.014v5.134c0 1.284.428 1.984 1.556 1.984 1.264 0 1.809-.817 1.809-2.081v-5.037h2.956v9.374h-2.956V20.14c-.525.992-1.498 1.595-2.917 1.595zm12.077 0c-2.8 0-4.415-2.12-4.415-4.94 0-2.8 1.73-4.94 4.454-4.94 1.36 0 2.43.642 2.936 1.595v-1.342h2.956v9.374H70.77v-1.323c-.506.934-1.672 1.576-2.975 1.576zm.855-2.47c1.478 0 2.237-1.109 2.237-2.47 0-1.342-.759-2.45-2.237-2.45-1.38 0-2.236 1.03-2.236 2.45 0 1.42.856 2.47 2.236 2.47zm7.546-7.157h2.975v1.361c.545-1.05 1.615-1.614 3.034-1.614 2.276 0 3.423 1.284 3.423 3.831v5.796h-2.995v-4.823c0-1.575-.447-2.295-1.653-2.295-1.186 0-1.809.778-1.809 2.217v4.9h-2.975v-9.373zm16.725 7.06c.37 0 .758-.02 1.03-.059v2.373c-.427.078-1.127.155-1.983.155-1.4 0-3.326-.31-3.326-3.442v-3.734h-1.478v-2.353h1.478v-2.78h2.976v2.78h2.12v2.353h-2.12v3.112c0 1.38.564 1.595 1.303 1.595zm6.495 2.606c-2.742 0-4.434-1.342-4.434-3.112h2.956c0 .642.623 1.108 1.537 1.108.641 0 1.089-.33 1.089-.875 0-.37-.175-.68-.681-.797l-2.295-.583c-1.556-.39-2.353-1.362-2.353-2.704 0-1.75 1.536-2.975 4.006-2.975 2.742 0 4.181 1.147 4.181 2.917h-2.936c0-.661-.486-1.03-1.284-1.03-.641 0-1.07.31-1.07.777 0 .428.292.7.798.836l2.217.603c1.44.39 2.373 1.264 2.373 2.606 0 1.926-1.537 3.229-4.104 3.229zm10.871-2.606c.37 0 .759-.02 1.031-.059v2.373c-.428.078-1.128.155-1.984.155-1.4 0-3.325-.31-3.325-3.442v-3.734h-1.478v-2.353h1.478v-2.78h2.975v2.78h2.12v2.353h-2.12v3.112c0 1.38.564 1.595 1.303 1.595zm6.476 2.567c-2.8 0-4.414-2.12-4.414-4.94 0-2.8 1.73-4.94 4.453-4.94 1.362 0 2.431.642 2.937 1.595v-1.342h2.956v9.374h-2.956v-1.323c-.506.934-1.673 1.576-2.976 1.576zm.856-2.47c1.478 0 2.237-1.109 2.237-2.47 0-1.342-.759-2.45-2.237-2.45-1.38 0-2.236 1.03-2.236 2.45 0 1.42.855 2.47 2.236 2.47zm7.546-7.157h2.975v1.361c.409-.933 1.381-1.614 2.684-1.614 1.672 0 2.528.74 2.937 1.731.505-1.011 1.614-1.73 2.994-1.73 2.684 0 3.326 1.847 3.326 3.811v5.815h-2.995v-5.27c0-1.303-.486-1.848-1.4-1.848-.934 0-1.575.525-1.575 2.295v4.823h-2.995v-5.29c0-1.303-.467-1.828-1.381-1.828-.953 0-1.595.525-1.595 2.295v4.823h-2.975v-9.374zm17.27 0h2.975v1.342c.486-.895 1.653-1.595 3.053-1.595 2.567 0 4.317 1.984 4.317 4.94 0 2.937-1.808 4.94-4.395 4.94-1.38 0-2.509-.7-2.975-1.576v5.212h-2.976V12.108zm5.094 7.157c1.303 0 2.217-1.011 2.217-2.47 0-1.44-.914-2.45-2.217-2.45-1.342 0-2.256.991-2.256 2.45 0 1.478.934 2.47 2.256 2.47zM153.564 14.056a1.27 1.27 0 0 1-.663-.169 1.143 1.143 0 0 1-.435-.458 1.37 1.37 0 0 1-.152-.647c0-.234.05-.448.152-.641.101-.194.246-.346.435-.459a1.27 1.27 0 0 1 .663-.169c.25 0 .47.057.66.17.19.112.336.264.437.458.102.193.153.407.153.641 0 .238-.051.453-.153.647a1.138 1.138 0 0 1-.437.458c-.19.113-.41.17-.66.17zm0-.209c.202 0 .38-.048.532-.143a.942.942 0 0 0 .35-.385c.08-.161.12-.34.12-.537 0-.193-.04-.37-.12-.532a.942.942 0 0 0-.882-.528.983.983 0 0 0-.533.143.959.959 0 0 0-.351.385 1.155 1.155 0 0 0-.124.532c0 .197.041.376.124.537.082.162.2.29.351.385.152.095.33.143.533.143zm-.452-1.754h.523c.133 0 .242.045.328.136.085.09.128.199.128.325a.461.461 0 0 1-.078.264.416.416 0 0 1-.221.164l.29.456h-.233l-.266-.432h-.262v.432h-.209v-1.345zm.509.732c.079 0 .142-.026.19-.078a.276.276 0 0 0 .071-.193.282.282 0 0 0-.071-.197.244.244 0 0 0-.19-.078h-.295v.546h.295z"/>
    </g>
</svg>
