<?xml version="1.0" encoding="UTF-8" standalone="no"?>
<svg
   xmlns:dc="http://purl.org/dc/elements/1.1/"
   xmlns:cc="http://creativecommons.org/ns#"
   xmlns:rdf="http://www.w3.org/1999/02/22-rdf-syntax-ns#"
   xmlns:svg="http://www.w3.org/2000/svg"
   xmlns="http://www.w3.org/2000/svg"
   xmlns:xlink="http://www.w3.org/1999/xlink"
   xmlns:sodipodi="http://sodipodi.sourceforge.net/DTD/sodipodi-0.dtd"
   xmlns:inkscape="http://www.inkscape.org/namespaces/inkscape"
   viewBox="0 0 60 59.34"
   version="1.1"
   id="svg23"
   sodipodi:docname="susd1.svg"
   width="60"
   height="59.34"
   inkscape:version="0.92.4 (0.92.4+202003022015+8da6682)">
  <metadata
     id="metadata27">
    <rdf:RDF>
      <cc:Work
         rdf:about="">
        <dc:format>image/svg+xml</dc:format>
        <dc:type
           rdf:resource="http://purl.org/dc/dcmitype/StillImage" />
        <dc:title></dc:title>
      </cc:Work>
    </rdf:RDF>
  </metadata>
  <sodipodi:namedview
     pagecolor="#ffffff"
     bordercolor="#666666"
     borderopacity="1"
     objecttolerance="10"
     gridtolerance="10"
     guidetolerance="10"
     inkscape:pageopacity="0"
     inkscape:pageshadow="2"
     inkscape:window-width="1533"
     inkscape:window-height="845"
     id="namedview25"
     showgrid="false"
     fit-margin-top="0"
     fit-margin-left="0"
     fit-margin-right="0"
     fit-margin-bottom="0"
     inkscape:zoom="7.8666667"
     inkscape:cx="23.161411"
     inkscape:cy="35.913361"
     inkscape:window-x="67"
     inkscape:window-y="27"
     inkscape:window-maximized="1"
     inkscape:current-layer="svg23" />
  <defs
     id="defs3">
    <path
       id="a"
       d="m 2.35,0.547 v 4.719 c 0,0.658 0.126,1.154 0.378,1.487 0.252,0.333 0.65,0.5 1.192,0.5 0.543,0 0.942,-0.167 1.198,-0.5 C 5.374,6.42 5.502,5.924 5.502,5.266 V 0.547 h 1.72 v 4.626 c 0,1.162 -0.281,2.049 -0.843,2.66 C 5.817,8.446 4.998,8.753 3.92,8.753 2.843,8.753 2.025,8.446 1.467,7.833 0.91,7.223 0.63,6.336 0.63,5.174 V 0.547 Z m 7.554,5.486 c 0.03,0.402 0.193,0.726 0.487,0.97 0.294,0.244 0.686,0.366 1.175,0.366 0.405,0 0.736,-0.087 0.992,-0.261 A 0.831,0.831 0 0 0 12.942,6.381 C 12.942,6.164 12.871,5.991 12.73,5.864 12.588,5.736 12.39,5.635 12.134,5.562 A 16.77,16.77 0 0 0 10.947,5.289 C 10.42,5.188 9.977,5.059 9.617,4.899 A 2.11,2.11 0 0 1 8.74,4.19 C 8.515,3.877 8.402,3.46 8.402,2.941 8.402,2.468 8.53,2.046 8.786,1.674 A 2.598,2.598 0 0 1 9.852,0.797 c 0.455,-0.213 0.969,-0.32 1.542,-0.32 0.589,0 1.118,0.11 1.588,0.331 0.47,0.221 0.84,0.525 1.112,0.913 a 2.3,2.3 0 0 1 0.418,1.313 H 12.827 A 1.235,1.235 0 0 0 12.391,2.192 c -0.252,-0.214 -0.584,-0.32 -0.997,-0.32 -0.382,0 -0.688,0.081 -0.917,0.244 -0.23,0.163 -0.344,0.395 -0.344,0.697 0,0.217 0.069,0.386 0.207,0.506 0.137,0.12 0.332,0.217 0.584,0.29 0.252,0.074 0.642,0.161 1.17,0.262 0.534,0.1 0.985,0.226 1.352,0.378 0.367,0.15 0.663,0.38 0.888,0.685 0.226,0.306 0.339,0.715 0.339,1.226 0,0.496 -0.134,0.94 -0.402,1.331 -0.267,0.391 -0.64,0.7 -1.117,0.924 a 3.738,3.738 0 0 1 -1.61,0.337 C 10.901,8.752 10.33,8.634 9.829,8.398 A 2.849,2.849 0 0 1 8.655,7.416 2.524,2.524 0 0 1 8.219,6.009 Z m 5.8,-5.486 h 2.786 c 0.802,0 1.51,0.172 2.126,0.517 a 3.56,3.56 0 0 1 1.422,1.441 c 0.332,0.616 0.498,1.32 0.498,2.11 0,0.79 -0.166,1.493 -0.498,2.11 a 3.56,3.56 0 0 1 -1.422,1.44 C 20.001,8.51 19.292,8.682 18.49,8.682 H 15.704 Z M 18.49,7.23 c 0.726,0 1.29,-0.239 1.69,-0.715 0.402,-0.477 0.602,-1.11 0.602,-1.9 0,-0.79 -0.2,-1.424 -0.601,-1.9 C 19.779,2.237 19.216,2 18.49,2 h -1.066 v 5.23 z"
       inkscape:connector-curvature="0" />
  </defs>
  <g
     id="g21"
     style="fill:none;fill-rule:evenodd"
     transform="translate(0,-0.45899963)">
    <ellipse
       cx="30"
       cy="30.129"
       rx="30"
       ry="29.67"
       id="ellipse5"
       style="fill:#1e1a31" />
    <g
       id="g13"
       style="fill:#ffffff">
      <path
         d="m 25.69,28.178 c 0.803,0 1.455,0.66 1.455,1.476 0,0.815 -0.652,1.476 -1.456,1.476 h -3.778 c -3.659,0 -6.625,-3.008 -6.625,-6.718 0,-3.71 2.966,-6.717 6.625,-6.717 h 9.744 c 0.804,0 1.455,0.66 1.455,1.475 0,0.815 -0.651,1.476 -1.455,1.476 H 21.91 c -2.051,0 -3.714,1.686 -3.714,3.766 0,2.08 1.663,3.766 3.714,3.766 h 3.778 z"
         id="path7"
         inkscape:connector-curvature="0" />
      <path
         d="m 22.707,31.13 c -0.804,0 -1.456,-0.661 -1.456,-1.476 0,-0.815 0.652,-1.476 1.456,-1.476 h 3.778 c 3.659,0 6.625,3.008 6.625,6.718 0,3.71 -2.966,6.717 -6.625,6.717 H 16.74 c -0.804,0 -1.455,-0.66 -1.455,-1.476 0,-0.815 0.651,-1.475 1.455,-1.475 h 9.744 c 2.051,0 3.714,-1.686 3.714,-3.766 0,-2.08 -1.663,-3.766 -3.714,-3.766 h -3.778 z"
         id="path9"
         inkscape:connector-curvature="0" />
      <path
         d="M 17.892,41.017 15.525,39.298 30.408,18.24 32.775,19.96 Z"
         id="path11"
         inkscape:connector-curvature="0"
         style="fill-opacity:0.5" />
    </g>
    <g
       transform="rotate(-90,38.02,3.112)"
       id="g19">
      <use
         xlink:href="#a"
         id="use15"
         style="fill:#000000"
         x="0"
         y="0"
         width="100%"
         height="100%" />
      <use
         xlink:href="#a"
         id="use17"
         style="fill:#ffffff"
         x="0"
         y="0"
         width="100%"
         height="100%" />
    </g>
  </g>
</svg>
