<?xml version="1.0" encoding="UTF-8"?>
<svg width="22" height="22" version="1.1" viewBox="0 0 300 300" xmlns="http://www.w3.org/2000/svg">
 <path d="M150 300c82.843 0 150-67.157 150-150S232.843 0 150 0 0 67.157 0 150s67.157 150 150 150z" fill="#10BA97"/>
 <g fill="#1E1A31">
  <path d="M179 197.641h24.36c3.4 0 5.96-.66 7.68-1.98 1.72-1.32 2.58-3.4 2.58-6.24 0-2.84-.86-4.92-2.58-6.24-1.72-1.36-4.28-2.04-7.68-2.04H179v-9h23.88c6 0 10.58 1.48 13.74 4.44 3.16 2.92 4.74 7.2 4.74 12.84s-1.58 9.92-4.74 12.84-7.74 4.38-13.74 4.38H179v-9zm28.32-39.514c2.08-.16 3.76-1 5.04-2.52 1.24-1.56 1.86-3.62 1.86-6.18 0-2.12-.44-3.84-1.32-5.16-.92-1.36-2.18-2.04-3.78-2.04-1.12 0-2 .38-2.64 1.14-.68.72-1.2 1.76-1.56 3.12-.4 1.32-.88 3.38-1.44 6.18-.52 2.76-1.18 5.08-1.98 6.96-.84 1.88-2.06 3.42-3.66 4.62-1.64 1.16-3.8 1.74-6.48 1.74-2.44 0-4.62-.66-6.54-1.98-1.92-1.36-3.42-3.22-4.5-5.58-1.12-2.4-1.68-5.1-1.68-8.1 0-3.08.58-5.84 1.74-8.28 1.12-2.48 2.68-4.42 4.68-5.82 2-1.44 4.26-2.18 6.78-2.22v8.82c-1.8.2-3.24.96-4.32 2.28-1.12 1.32-1.68 3.06-1.68 5.22 0 2 .42 3.6 1.26 4.8.84 1.2 2.04 1.8 3.6 1.8 1.12 0 2-.36 2.64-1.08.6-.72 1.1-1.74 1.5-3.06.36-1.32.8-3.36 1.32-6.12.52-2.8 1.18-5.16 1.98-7.08.76-1.92 1.94-3.46 3.54-4.62 1.56-1.2 3.66-1.8 6.3-1.8 2.56 0 4.86.7 6.9 2.1 2 1.4 3.58 3.36 4.74 5.88 1.16 2.48 1.74 5.28 1.74 8.4 0 3.36-.6 6.36-1.8 9-1.24 2.6-2.94 4.64-5.1 6.12-2.16 1.48-4.58 2.24-7.26 2.28l.12-8.82zM179 127.767v-14.58c0-4.2.9-7.9 2.7-11.1 1.76-3.24 4.24-5.72 7.44-7.44 3.16-1.76 6.78-2.64 10.86-2.64 4.08 0 7.72.88 10.92 2.64 3.16 1.72 5.64 4.2 7.44 7.44 1.76 3.2 2.64 6.9 2.64 11.1v14.58h-42zm34.5-14.58c0-3.8-1.22-6.74-3.66-8.82-2.48-2.12-5.76-3.18-9.84-3.18s-7.34 1.06-9.78 3.18c-2.48 2.08-3.72 5.02-3.72 8.82v5.58h27v-5.58z"/>
  <path d="m81.424 208.53-12.483-8.906 78.516-109.09 12.484 8.906-78.517 109.09z" opacity=".5"/>
  <path d="m121.87 142.35h4.191c19.298 0 34.941 15.592 34.941 34.826 0 19.233-15.643 34.825-34.941 34.825h-51.383c-4.24 0-7.676-3.425-7.676-7.651 0-4.225 3.437-7.65 7.676-7.65h51.383c10.819 0 19.589-8.741 19.589-19.524s-8.77-19.524-19.589-19.524h-24.118c-19.298 0-34.941-15.592-34.941-34.826 0-19.233 15.643-34.825 34.941-34.825h51.383c4.239 0 7.676 3.425 7.676 7.65 0 4.226-3.437 7.651-7.676 7.651h-51.383c-10.82 0-19.59 8.741-19.59 19.524s8.77 19.524 19.59 19.524h19.927z" clip-rule="evenodd" fill-rule="evenodd"/>
 </g>
</svg>
